<?xml version="1.0" encoding="UTF-8" standalone="no"?>
<!DOCTYPE svg PUBLIC "-//W3C//DTD SVG 1.1//EN" "http://www.w3.org/Graphics/SVG/1.1/DTD/svg11.dtd">
<svg width="100%" height="100%" viewBox="0 0 40 40" version="1.1" xmlns="http://www.w3.org/2000/svg"
     xml:space="preserve"
     style="fill-rule:evenodd;clip-rule:evenodd;stroke-linejoin:round;stroke-miterlimit:2;">
    <g transform="matrix(0.052879,0.052806,-0.04597,0.046034,14.934823,-23.217273)">
        <path d="M497,70C497,70 541.167,179.048 533,323L486,341C486.333,325.952 483.457,322.198 477,316.71C469.386,310.909 455.531,306.265 441.07,304L497,70Z" style="fill:rgb(126,126,126);"/>
        <path d="M497,70C497,70 541.167,179.048 533,323L486,341C486.333,325.952 483.457,322.198 477,316.71C469.386,310.909 455.531,306.265 441.07,304L497,70ZM497.019,70.266L441.172,303.924C455.614,306.197 469.44,310.841 477.045,316.636C480.286,319.389 482.628,321.712 484.118,325.23C485.598,328.725 486.239,333.404 486.082,340.873L532.925,322.93C540.857,182.842 499.226,75.827 497.019,70.266Z" style="fill:rgb(128,128,128);fill-opacity:0.53;"/>
    </g>
    <g transform="matrix(0.045331,0.045268,-0.045268,0.045331,18.706728,-19.735261)">
        <path d="M488.31,351.632L510.31,319.632L547.313,319.588L507,751C505.062,773.881 477.93,799.667 450,800C420.225,800.355 390.868,763.45 386.97,739.955L362.501,334.068L422.775,339.88L433.23,747.001C435.526,754.478 441.217,762.388 451.292,761.959C462.391,761.486 465.933,755.754 468.22,747.663L488.31,351.632Z" style="fill:rgb(77,77,77);"/>
        <path d="M488.31,351.632L510.31,319.632L547.313,319.588L507,751C505.062,773.881 477.93,799.667 450,800C420.225,800.355 390.868,763.45 386.97,739.955L362.501,334.068L422.775,339.88L433.23,747.001C435.526,754.478 441.217,762.388 451.292,761.959C462.391,761.486 465.933,755.754 468.22,747.663L488.31,351.632ZM488.401,351.663L468.311,747.678C466.932,752.556 465.094,756.587 461.44,759.129C459.003,760.824 455.757,761.861 451.296,762.051C441.172,762.483 435.449,754.541 433.142,747.028L433.138,747.003L422.685,339.964L362.599,334.17L387.062,739.944C389.4,754.024 400.892,772.922 416.132,785.713C426.288,794.237 438.11,800.049 449.999,799.908C466.731,799.708 483.176,790.357 494.073,777.976C501.335,769.724 506.134,760.126 506.908,750.992L547.211,319.68L510.358,319.725L488.401,351.663Z" style="fill:rgb(128,128,128);fill-opacity:0.53;"/>
    </g>
    <g transform="matrix(1.083781,0,0,1.083781,-2.371677,-0.974465)">
        <g transform="matrix(0.045331,0.045268,-0.045268,0.045331,18.68337,-19.743629)">
            <path d="M409,72L464.216,298.721L441,304L393.855,123.347L409,72Z" style="fill:url(#_Linear1);"/>
            <path d="M409,72L464.216,298.721L441,304L393.855,123.347L409,72ZM408.992,72.328L393.944,123.348L441.062,303.898L464.113,298.657L408.992,72.328Z" style="fill:rgb(128,128,128);fill-opacity:0.53;"/>
        </g>
        <g transform="matrix(0.045331,0.045268,-0.045268,0.045331,18.706728,-19.735261)">
            <path d="M370.998,316.71C371.181,318.702 371.98,320.945 375,319.71C375.303,338.405 381.368,416.759 381.368,416.759L402,439L419.752,415.652C419.752,415.652 422.07,349.553 421,329C420.831,325.759 423.984,320.613 428.112,315.958C433.697,309.744 438.322,305.571 441,304L394,123C369.333,210.118 367.831,282.259 370.998,316.71Z" style="fill:rgb(195,195,195);"/>
            <path d="M370.998,316.71C367.831,282.259 369.333,210.118 394,123L441,304C438.322,305.571 433.697,309.744 428.112,315.958C423.984,320.613 420.831,325.759 421,329C422.07,349.553 419.752,415.652 419.752,415.652L402,439L381.368,416.759C381.368,416.759 375.303,338.405 375,319.71C371.98,320.945 371.181,318.702 370.998,316.71ZM371.083,316.702C371.191,317.871 371.506,319.132 372.385,319.689C372.968,320.059 373.795,320.111 374.968,319.631L375.047,319.639L375.085,319.709C375.385,338.192 381.318,414.995 381.451,416.723L401.993,438.868L419.667,415.619C419.725,413.976 421.971,349.294 420.915,329.004C420.847,327.697 421.312,326.081 422.165,324.313C423.435,321.678 425.566,318.701 428.048,315.901C433.603,309.72 438.211,305.557 440.901,303.96L393.998,123.322C369.415,210.294 367.921,282.295 371.083,316.702Z" style="fill:rgb(128,128,128);fill-opacity:0.53;"/>
        </g>
    </g>
    <defs>
        <linearGradient id="_Linear1" x1="0" y1="0" x2="1" y2="0" gradientUnits="userSpaceOnUse" gradientTransform="matrix(35.180642,0,0,116,429.035656,188)"><stop offset="0" style="stop-color:rgb(120,120,120);stop-opacity:1"/><stop offset="1" style="stop-color:rgb(251,251,251);stop-opacity:1"/></linearGradient>
    </defs>
</svg>
